<svg t="1744718790764" class="icon" viewBox="0 0 1024 1024" version="1.1" xmlns="http://www.w3.org/2000/svg" p-id="6621"
     width="200" height="200">
    <path d="M576.0686 822.8424l-416.7168-63.2422V201.915392l416.7168-74.8585V822.8423680000001zM173.6878 747.2763l388.0448 58.8913V144.19763200000003l-388.0448 69.7078V747.2762879999999z"
          p-id="6622" fill="#1296db"></path>
    <path d="M505.6563 351.616l-59.5415 249.644h-31.965184l-42.8042-179.8595c-1.92-8.1654-3.0659-16.7619-3.4294-25.7874h-0.548864c-0.5489 8.919-1.8309 17.406-3.841 25.4638l-43.2159 180.182h-31.691776l-61.5997-249.644h30.319616000000003l43.3531 188.5635c1.92 8.4879 3.0628 17.0312 3.4294 25.6246h0.823296c0.4567-6.4471 1.9651-14.9893 4.5271-25.6246L355.4304 351.616h27.027455999999997l43.902 190.0134c1.4623 6.2331 2.6511 14.1834 3.5656 23.8531h0.548864c0.4567-6.9827 1.7838-15.1501 3.9793-24.4982L476.16 351.616H505.65632z"
          p-id="6623" fill="#1296db"></path>
    <path d="M829.7933 750.3647H583.887872c-12.2163 0-22.1553-9.9379-22.1553-22.1553V238.63296c0-12.2163 9.9389-22.1553 22.1553-22.1553h245.906432c12.2173 0 22.1542 9.9389 22.1542 22.1553v489.577472C851.9475 740.4268 842.0096 750.3647 829.7933 750.3647zM583.8879 230.8137c-4.311 0-7.8193 3.5072-7.8193 7.8193v489.577472c0 4.3121 3.5082 7.8193 7.8193 7.8193h245.906432c4.311 0 7.8182-3.5072 7.8182-7.8193V238.63296c0-4.311-3.5072-7.8193-7.8182-7.8193H583.887872z"
          p-id="6624" fill="#1296db"></path>
    <path d="M779.8385 329.9789H568.900608c-3.9588 0-7.168-3.2092-7.168-7.168s3.2092-7.168 7.168-7.168h210.936832c3.9578 0 7.168 3.2092 7.168 7.168S783.7962 329.9789 779.8385 329.9789z"
          p-id="6625" fill="#1296db"></path>
    <path d="M779.8385 431.8904H568.900608c-3.9588 0-7.168-3.2092-7.168-7.168 0-3.9578 3.2092-7.168 7.168-7.168h210.936832c3.9578 0 7.168 3.2102 7.168 7.168C787.0065 428.6812 783.7962 431.8904 779.8385 431.8904z"
          p-id="6626" fill="#1296db"></path>
    <path d="M779.8385 529.8063H568.900608c-3.9588 0-7.168-3.2092-7.168-7.168 0-3.9578 3.2092-7.168 7.168-7.168h210.936832c3.9578 0 7.168 3.2102 7.168 7.168C787.0065 526.5971 783.7962 529.8063 779.8385 529.8063z"
          p-id="6627" fill="#1296db"></path>
    <path d="M779.8385 645.7068H568.900608c-3.9588 0-7.168-3.2092-7.168-7.168s3.2092-7.168 7.168-7.168h210.936832c3.9578 0 7.168 3.2092 7.168 7.168S783.7962 645.7068 779.8385 645.7068z"
          p-id="6628" fill="#1296db"></path>
</svg>